<?xml version="1.0" encoding="utf-8"?>
<!-- Generator: Adobe Illustrator 27.5.0, SVG Export Plug-In . SVG Version: 6.00 Build 0)  -->
<svg version="1.1" id="Слой_1" xmlns="http://www.w3.org/2000/svg" xmlns:xlink="http://www.w3.org/1999/xlink" x="0px" y="0px"
	 viewBox="0 0 2465.389 2000" style="enable-background:new 0 0 2465.389 2000;" xml:space="preserve">
<g>
	<rect style="fill:#FAFAFA;" width="2465.389" height="2000"/>
	<g>
		<g>
			<linearGradient id="SVGID_1_" gradientUnits="userSpaceOnUse" x1="1396.7469" y1="338.0083" x2="1888.0205" y2="338.0083">
				<stop  offset="0" style="stop-color:#FF9F55"/>
				<stop  offset="1" style="stop-color:#FFD255"/>
			</linearGradient>
			<path style="fill:url(#SVGID_1_);" d="M1847.47,284.875c-4.986-19.302-12.636-37.529-22.516-54.285l22.921-34.473l-31.8-31.8
				l-31.801-31.8l-34.472,22.921c-16.757-9.88-34.983-17.529-54.285-22.516l-8.161-40.55h-44.973h-44.973l-8.161,40.55
				c-19.302,4.987-37.528,12.636-54.284,22.516l-34.473-22.921l-31.801,31.8l-31.8,31.8l22.922,34.473
				c-9.88,16.756-17.53,34.983-22.517,54.285l-40.551,8.161v44.973v44.972l40.551,8.161c4.986,19.302,12.637,37.529,22.517,54.285
				l-22.922,34.473l31.8,31.8l31.801,31.801l34.473-22.922c16.756,9.88,34.982,17.529,54.284,22.516l8.161,40.55h44.973h44.973
				l8.161-40.55c19.302-4.987,37.528-12.636,54.284-22.516l34.473,22.922l31.801-31.801l31.8-31.8l-22.921-34.473
				c9.88-16.756,17.529-34.983,22.516-54.285l40.551-8.161v-44.972v-44.973L1847.47,284.875z M1642.384,495.593
				c-87.031,0-157.584-70.553-157.584-157.584c0-87.032,70.553-157.585,157.584-157.585s157.585,70.553,157.585,157.585
				C1799.969,425.04,1729.415,495.593,1642.384,495.593z"/>
		</g>
		<g>
			
				<linearGradient id="SVGID_00000044148040388726867750000013243724180797472644_" gradientUnits="userSpaceOnUse" x1="1891.5205" y1="460.3968" x2="2096.5615" y2="460.3968">
				<stop  offset="0" style="stop-color:#FF9F55"/>
				<stop  offset="1" style="stop-color:#FFD255"/>
			</linearGradient>
			<path style="fill:url(#SVGID_00000044148040388726867750000013243724180797472644_);" d="M2079.637,438.221
				c-2.081-8.056-5.273-15.663-9.397-22.657l9.567-14.387l-13.272-13.272l-13.272-13.273l-14.388,9.567
				c-6.993-4.123-14.602-7.316-22.656-9.397l-3.407-16.924h-18.769h-18.77l-3.406,16.924c-8.056,2.081-15.663,5.274-22.657,9.397
				l-14.387-9.567l-13.272,13.273l-13.273,13.272l9.566,14.387c-4.123,6.994-7.316,14.601-9.397,22.657l-16.925,3.406v18.77v18.77
				l16.925,3.406c2.081,8.057,5.274,15.664,9.397,22.657l-9.566,14.388l13.273,13.272l13.272,13.271l14.387-9.566
				c6.994,4.124,14.601,7.316,22.657,9.397l3.406,16.924h18.77h18.769l3.407-16.924c8.055-2.081,15.663-5.273,22.656-9.397
				l14.388,9.566l13.272-13.272l13.272-13.272l-9.567-14.388c4.124-6.994,7.316-14.601,9.397-22.657l16.925-3.406v-18.77v-18.77
				L2079.637,438.221z M1994.041,526.167c-36.323,0-65.771-29.446-65.771-65.77s29.447-65.771,65.771-65.771
				c36.324,0,65.771,29.446,65.771,65.771S2030.365,526.167,1994.041,526.167z"/>
		</g>
		<g>
			<polygon style="fill:#FFC755;" points="1605.457,1050.448 1479.688,1050.448 1479.688,1141.607 1586.257,1141.607 
				1605.457,1160.809 			"/>
		</g>
		<g>
			<polygon style="fill:#FAE6DE;" points="717.364,691.112 539.509,691.112 539.509,820.023 690.212,820.023 717.364,847.177 			"/>
		</g>
		<g>
			
				<linearGradient id="SVGID_00000067225775111829127010000003433672261268456888_" gradientUnits="userSpaceOnUse" x1="1177.123" y1="417.1199" x2="1177.123" y2="1318.8412">
				<stop  offset="0" style="stop-color:#9A5CFF"/>
				<stop  offset="0.9948" style="stop-color:#4059BF"/>
			</linearGradient>
			<path style="fill:url(#SVGID_00000067225775111829127010000003433672261268456888_);" d="M884.25,1384.174
				c0-167.378,12.95-238.697,38.888-301.891c25.9-63.191,79.37-118.257,160.412-165.273c24.305-14.582,54.268-31.178,89.928-49.824
				c35.622-18.608,70.484-40.9,104.512-66.839c34.026-25.9,62.773-56.281,86.281-91.144c23.47-34.823,35.242-74.927,35.242-120.309
				c0-34.026-6.494-63.99-19.444-89.928c-12.987-25.899-30.001-47.774-51.04-65.623c-21.076-17.81-45.799-31.179-74.13-40.103
				c-28.368-8.886-57.116-13.368-86.282-13.368c-35.659,0-68.054,6.077-97.219,18.229c-29.166,12.153-55.522,27.571-78.991,46.18
				c-23.507,18.647-44.584,39.723-63.192,63.192c-18.646,23.507-34.444,45.8-47.395,66.838L670.367,428.484
				c21.039-50.205,48.99-94.789,83.853-133.677c34.823-38.888,74.509-71.699,119.094-98.435
				c44.546-26.735,92.738-46.977,144.613-60.762c51.838-13.747,105.309-20.659,160.412-20.659c61.56,0,122.321,8.925,182.286,26.735
				c59.927,17.849,113.814,46.179,161.627,85.067c47.774,38.888,86.662,88.713,116.663,149.475
				c29.964,60.762,44.964,133.297,44.964,217.528c0,51.876-6.075,97.637-18.229,137.322
				c-12.151,39.723-29.583,75.763-52.255,108.156c-22.71,32.433-49.445,61.598-80.206,87.497
				c-30.799,25.938-65.623,51.04-104.511,75.345c-32.432,19.443-64.826,38.09-97.22,55.901
				c-32.432,17.849-61.978,37.673-88.712,59.547c-26.735,21.874-48.61,47.015-65.624,75.345
				c-17.013,28.368-25.52,62.813-25.52,191.303H884.25z M889.111,1862.47v-335.407h269.784v335.407H889.111z"/>
		</g>
		<g>
			<path style="fill:#E3E3E3;" d="M771.792,982.384H370.89c-1.139,0-2.063-0.924-2.063-2.063v-19.698
				c0-1.14,0.924-2.063,2.063-2.063h400.902c1.14,0,2.063,0.924,2.063,2.063v19.698C773.855,981.46,772.932,982.384,771.792,982.384
				z"/>
			<path style="fill:#E3E3E3;" d="M648.39,1185.181H370.89c-1.139,0-2.063-0.924-2.063-2.063v-19.699
				c0-1.139,0.924-2.063,2.063-2.063H648.39c1.14,0,2.064,0.924,2.064,2.063v19.699
				C650.453,1184.257,649.529,1185.181,648.39,1185.181z"/>
			<path style="fill:#E3E3E3;" d="M601.351,1033.083H370.89c-1.139,0-2.063-0.924-2.063-2.063v-19.698
				c0-1.14,0.924-2.063,2.063-2.063h230.46c1.14,0,2.063,0.924,2.063,2.063v19.698
				C603.413,1032.159,602.49,1033.083,601.351,1033.083z"/>
			<path style="fill:#E3E3E3;" d="M686.266,1083.782H370.89c-1.139,0-2.063-0.924-2.063-2.063v-19.698
				c0-1.14,0.924-2.063,2.063-2.063h315.376c1.14,0,2.063,0.924,2.063,2.063v19.698
				C688.329,1082.858,687.405,1083.782,686.266,1083.782z"/>
			<path style="fill:#E3E3E3;" d="M502.995,1134.481H370.89c-1.139,0-2.063-0.924-2.063-2.063v-19.698
				c0-1.14,0.924-2.063,2.063-2.063h132.105c1.14,0,2.064,0.924,2.064,2.063v19.698
				C505.059,1133.558,504.135,1134.481,502.995,1134.481z"/>
			<path style="fill:#F2C138;" d="M502.995,932.273H370.89c-1.139,0-2.063-0.924-2.063-2.063v-19.698
				c0-1.14,0.924-2.064,2.063-2.064h132.105c1.14,0,2.064,0.924,2.064,2.064v19.698C505.059,931.35,504.135,932.273,502.995,932.273
				z"/>
		</g>
		<g>
			<g>
				<g>
					<path style="fill:#EEA886;" d="M1224.577,1108.036c0,0-16.739-22.107-19.189-25.563s-2.483-16.065,0.861-29.245
						c3.249-12.802,5.826-31.201,7.876-32.365c2.051-1.165,3.317-3.131,9.356-2.598s10.85,4.276,10.85,4.276
						s7.756-2.815,13.331,2.244c0,0,7.419-2.316,12.807,4.455c0,0,7.304-2.068,10.798,3.181c0,0,0.271,11.816,1.646,16.16
						s-1.709,35.576-6.456,59.018C1266.456,1107.6,1256.367,1121.621,1224.577,1108.036z"/>
				</g>
			</g>
			<g>
				<g>
					<path style="fill:#CF8C6C;" d="M1231.609,1069.389c0,0,12.117,6.957,14.524,10.618c2.406,3.661,22.37-19.942,22.37-19.942
						S1240.527,1055.002,1231.609,1069.389z"/>
				</g>
			</g>
			<g>
				<g>
					<path style="fill:#DB9C7C;" d="M1213.492,1024.568c0,0-1.431,34.426,4.13,35.34c5.561,0.915,8.163-2.097,8.163-2.097
						l5.89,14.436c0,0,9.34,7.374,14.706-4.871c0,0,8.002,7.782,11.765-4.654c0,0,7.59,2.799,10.357-2.657
						c2.767-5.454,2.764-27.643,2.764-27.643s-1.93-5.203-10.604-3.699c0,0-4.846-6.759-12.878-4.423c0,0-7.812-6.219-16.465-3.618
						c0,0-9.07-5.568-17.454,0.339C1213.865,1021.021,1213.542,1023.117,1213.492,1024.568z"/>
				</g>
			</g>
			<g>
				<g>
					<path style="fill:#EEA886;" d="M1205.314,1081.389c0,0,11.733-20.582,23.115-29.028c2.574-1.909,5.42-3.296,8.179-1.645
						s3.851,7.711-0.773,16.884c-4.624,9.174-6.37,23.129-6.37,23.129S1221.929,1098.776,1205.314,1081.389z"/>
				</g>
			</g>
			<g>
				<path style="fill:#EEA886;" d="M1231.319,1020.682c0,0-6.048,36.951-4.6,40.457c1.447,3.507-12.187,1.393-13.213-1.689
					c-1.026-3.083-0.92-34.291-0.19-37.35C1214.046,1019.04,1225.219,1013.194,1231.319,1020.682z"/>
			</g>
			<g>
				<path style="fill:#EEA886;" d="M1211.481,1028.602c0,0,10.421-60.27,17.527-59.553c6.825,0.689,10.203,15.296,0.342,61.302
					C1219.763,1075.081,1211.481,1028.602,1211.481,1028.602z"/>
			</g>
			<path style="fill:#EEA886;" d="M1266.456,1107.6c0,0-6.462,15.673-12.548,22.573c-6.086,6.9-26.783-9.485-29.331-22.137
				C1222.03,1095.385,1266.456,1107.6,1266.456,1107.6z"/>
			<g>
				<rect x="835.335" y="813.454" style="fill:#F08D29;" width="3.275" height="80.747"/>
			</g>
			<path style="fill:#272A45;" d="M1105.052,811.461L930.85,867.208l-174.201-55.748L930.85,747.6L1105.052,811.461z"/>
			<path style="fill:#FCCCA2;" d="M995.84,925.204c0,0,57.316,119.89,17.862,127.06c-54.175,9.845-76.094-89.457-76.094-89.457
				L995.84,925.204z"/>
			<path style="fill:#272A45;" d="M1068.199,1246.696c15.101,22.441,47.19,52.311,63.122,52.097
				c10.28-0.145,176.104-143.516,176.055-151.802c-0.059-9.361-96.416-50.159-96.416-50.159s-27.897,34.078-43.518,55.463
				c-17.863,24.453-31.76,41.099-36.99,44.722c-5.229,3.635-29.125-37.087-29.125-37.087
				c-11.447-19.407-24.198-41.113-41.684-74.861c-16.886-32.591-83.617-53.418-83.617-53.418
				c-79.635,35.473,68.926,176.011,68.926,176.011S1060.998,1236.437,1068.199,1246.696z"/>
			<path style="fill:#272A45;" d="M1095.629,1529.382H765.042c0.541-7.052,1.054-13.97,1.595-20.754
				c6.027-76.474,12.704-134.553,19.785-153.511c28.299-75.723-14.136-294.578-14.136-294.578s20.19-18.233,96.303-35.02
				l157.981,32.633c0,0,41.247,31.479,45.193,88.406c3.945,56.926-7.92,210.973,0.783,254.68c1.892,9.572,9.189,50.035,19.38,107.39
				C1093.142,1515.305,1094.357,1522.25,1095.629,1529.382z"/>
			<g>
				<path style="fill:#EEA886;" d="M964.732,981.28c0,0-6.894,62.888-5.454,83.361c0,0-35.904,35.696-76.744-41.668
					c0,0,17.184-31.888,4.25-75.337C873.85,904.187,964.732,981.28,964.732,981.28z"/>
			</g>
			<g>
				<polygon style="fill:#EEA886;" points="959.278,1064.642 959.278,1097.256 917.955,1066.623 				"/>
			</g>
			<path style="fill:#EEA987;" d="M867.564,871.019c0,0-7.542-8.983-10.354,0.065c-2.813,9.047,6.399,35.941,7.412,39.835
				c0,0,4.57,15.092,6.396,13.167C872.844,922.159,867.564,871.019,867.564,871.019z"/>
			<path style="fill:#EEA987;" d="M999.294,872.138c0,0,7.542-8.984,10.354,0.063c2.812,9.048-6.399,35.942-7.412,39.836
				c0,0-4.57,15.093-6.396,13.167C994.015,923.277,999.294,872.138,999.294,872.138z"/>
			<path style="fill:#EEA987;" d="M945.262,785.025c0,0,69.216,10.573,59.083,118.732c-10.134,108.16-71.22,99.575-75.301,99.484
				c-4.081-0.091-61.283,2.249-66.231-129.729C862.813,873.512,860.505,775.913,945.262,785.025z"/>
			<path style="fill:#FCCCA2;" d="M876.088,867.046c0,0,76.819,22.663,113.596,15.416c0,0,2.348,13.46,7.63,14.289
				c5.281,0.828,7.979-25.731,7.979-25.731s1.801-87.955-78.403-88.783c-80.203-0.828-63.909,95.269-63.909,95.269l1.091,16.424
				C864.071,893.93,875.56,898.429,876.088,867.046z"/>
			<path style="fill:#F08D29;" d="M976.026,1031.65v120.085l54.145-95.181C1030.172,1056.555,1009.828,1037.707,976.026,1031.65z"/>
			<g>
				<path style="fill:#D6C5BE;" d="M959.278,1097.256l20.997-24.393l-18.232-64.219
					C962.043,1008.644,955.919,1044.406,959.278,1097.256z"/>
			</g>
			<g>
				<polygon style="fill:#FAE6DE;" points="980.275,1072.863 1008.445,1084.984 962.043,1008.644 				"/>
			</g>
			<polygon style="fill:#B8A9A1;" points="976.026,1151.735 976.026,1077.799 959.278,1097.256 938.296,1081.161 927.689,1094.954 
							"/>
			<g>
				<polygon style="fill:#D6C5BE;" points="959.278,1097.256 942.12,1076.188 884.327,1019.045 874.352,1032.11 				"/>
			</g>
			<path style="fill:#272A45;" d="M838.262,1508.628c2.73,9.01,4.974,16.249,6.352,20.754H736.021
				c-0.649-6.569,2.422-13.515,2.092-20.754c-1.878-41.198-1.752-62.139-2.992-92.563c-2.945-72.272,1.649-121.869,2.352-134.069
				c0.729-12.228-0.486-86.234,2.514-104.227s-7.676-55.184,12.001-93.42c19.677-38.21,75.14-47.997,75.14-47.997
				c48.003,15.713,1.378,108.624-5.028,153.618c-6.432,44.967-27.055,149.166-15.433,202.553
				C814.342,1427.73,829.1,1478.302,838.262,1508.628z"/>
			<path style="fill:#F08D29;" d="M868.585,1025.525l107.441,126.21l-198.886-94.775
				C777.141,1056.96,816.597,1027.535,868.585,1025.525z"/>
			<g>
				<polygon style="fill:#FAE6DE;" points="942.12,1076.188 917.955,1107.611 868.585,1025.525 884.327,1019.045 				"/>
			</g>
			<path style="fill:#F08D29;" d="M837.024,891.648v-0.017c-0.018,0-0.034,0.008-0.052,0.008c-0.018-0.001-0.034-0.008-0.052-0.008
				v0.017c-7.717,0.359-6.825,39.753-6.825,39.753h6.825h0.104h6.825C843.85,931.4,844.741,892.007,837.024,891.648z"/>
			<path style="fill:#272A45;" d="M1001.126,822.931c0,0-9.057-56.735-70.276-50.697c-61.219,6.037-65.362,26.633-70.028,55.579
				L1001.126,822.931z"/>
			<path style="fill:#51578F;" d="M1003.211,850.318c0,0-44.833-21.61-141.458,1.694l-0.932-24.2c0,0,1.529-0.587,4.363-1.518
				c16.658-5.485,78.178-23.132,132.69-4.519c1.078,0.362,2.173,0.759,3.252,1.156L1003.211,850.318L1003.211,850.318z"/>
			<path style="fill:#A77860;" d="M897.515,989.077c0,0,22.603,28.05,60.757,8.584c0,0-12.565,20.499-32.273,19.062
				S897.515,989.077,897.515,989.077z"/>
			
				<linearGradient id="SVGID_00000114781019300077378210000005040211949927845813_" gradientUnits="userSpaceOnUse" x1="638.2783" y1="1519.3726" x2="1219.5537" y2="1519.3726">
				<stop  offset="0" style="stop-color:#FF9F55"/>
				<stop  offset="1" style="stop-color:#FFD255"/>
			</linearGradient>
			
				<rect x="638.278" y="1508.995" style="fill:url(#SVGID_00000114781019300077378210000005040211949927845813_);" width="581.275" height="20.755"/>
		</g>
		<g>
			<g>
				<g>
					<g>
						<g>
							<g>
								<path style="fill:#EEA987;" d="M1847.622,1286.379c0,0,6.668-6.181,5.346-10.813c-1.125-3.939,0.567-8.352,0.992-10.171
									c0.568-2.432,0.797-10.295,2.607-9.861c3.063,0.735,2.353,13.297,2.729,15.972c0.377,2.675,8.479-6.283,11.25-6.755
									c2.77-0.471,16.846,13.79,10.573,19.295c-6.272,5.504-14.923,7.738-15.834,8.926c-0.911,1.187-5.205,4.449-5.205,4.449
									L1847.622,1286.379z"/>
							</g>
						</g>
					</g>
				</g>
				<g>
					<g>
						<g>
							<g>
								<path style="fill:#EEA987;" d="M1868.778,1265.689c0,0,20.321-15.575,22.545-15.479c2.223,0.096,3.002,1.247,1.162,2.782
									c-1.839,1.535-19.199,15.617-19.199,15.617s27.15-14.394,28.988-14.713c1.077-0.188,1.89,1.867,0.981,2.78
									s-26.175,16.802-26.175,16.802s25.373-13.393,26.99-13.202c1.416,0.167,2.429,2.508,0.615,3.631
									c-1.814,1.122-24.661,14.884-24.661,14.884s19.081-8.586,20.354-7.618c0.779,0.592,1.876,1.896-3.116,3.956
									c-4.993,2.063-15.855,8.643-15.855,8.643L1868.778,1265.689z"/>
							</g>
						</g>
					</g>
				</g>
			</g>
			<g>
				<path style="fill:#FCCCA2;" d="M1706.461,1098.503c0,0,48.612-4.043,47.282,47.095c-1.329,51.137-9.434,58.83,0.027,94.966
					s-47.394-20.52-47.394-20.52L1706.461,1098.503z"/>
			</g>
			<g>
				<g>
					<path style="fill:#363A5E;" d="M1558.38,1863.84c0,0-18.05,25.357-15.574,29.377c2.477,4.019,21.458,4.593,33.013,0
						c11.555-4.594,11.829-34.313,17.057-47.08c2.188-5.346-2.495-21.125-9.079-22.27s-13.745,2.217-13.745,2.217
						S1576.88,1844.07,1558.38,1863.84z"/>
				</g>
			</g>
			<g>
				<g>
					<g>
						<path style="fill:#EEA886;" d="M1569.929,1825.879c0,0-3.797,10.799-5.185,21.109c-1.151,8.552-12.86,26.707-12.31,29.004
							c0.55,2.297,15.406,4.376,21.458-1.544s9.947-23.14,11.279-33.438c1.241-9.593,2.808-14.331,2.808-14.331
							S1575.706,1819.564,1569.929,1825.879z"/>
					</g>
				</g>
			</g>
			<g>
				<g>
					<path style="fill:#363A5E;" d="M1715.493,1864.261c0,0-17.399,24.937-14.924,28.956c2.477,4.019,21.459,4.593,33.013,0
						c11.555-4.594,11.83-34.313,17.057-47.08c2.189-5.346-2.494-21.125-9.078-22.27c-6.584-1.145-14.306,2.461-14.306,2.461
						S1733.993,1844.491,1715.493,1864.261z"/>
				</g>
			</g>
			<g>
				<g>
					<g>
						<path style="fill:#EEA886;" d="M1727.255,1826.328c0,0-1.376,11.771-3.576,20.096c-2.201,8.324-14.03,27.271-13.48,29.568
							c0.551,2.297,15.406,4.376,21.458-1.544c6.053-5.92,10.729-23.062,11.279-33.438c0.551-10.376-1.375-17.144-1.375-17.144
							S1733.032,1820.013,1727.255,1826.328z"/>
					</g>
				</g>
			</g>
			<g>
				<g>
					<g>
						<path style="fill:#313657;" d="M1640.307,1413.5c0,0-15.489,75.192-19.046,94.124c-3.558,18.932-13.519,110.62-14.586,126.211
							c-1.066,15.591-16.162,74.335-15.45,79.903c0.711,5.568-24.517,115.935-24.517,115.935s17.875,1.93,25-1.052
							c4.872-2.038,44.001-101.58,44.001-129.419c0-38.483,21.49-88.725,24.607-97.487c30.665-86.221,36.29-106.68,40.559-111.876
							c0,0,0.646,7.032,2.103,18.716c1.675,13.438,8.994,109.394,12.195,122.015c3.202,12.621,0.716,55.31,2.494,76.841
							c1.778,21.529,5.078,119.739,5.078,119.739s16.056,0.697,23.133-3.52c2.373-1.415,10.56-105.53,10.916-131.144
							c0.355-25.613,0.734-60.938,1.422-72.015c6.592-106.141,22.789-121.299-2.723-196.418
							C1707.726,1283.404,1640.307,1413.5,1640.307,1413.5z"/>
					</g>
				</g>
			</g>
			<g>
				<g>
					<polygon style="fill:#363A5E;" points="1593.358,1843.905 1593.358,1870.453 1590.058,1870.453 1590.058,1849.934 					"/>
				</g>
			</g>
			<g>
				<g>
					<polygon style="fill:#363A5E;" points="1751.122,1843.905 1751.122,1870.453 1747.821,1870.453 1747.821,1849.934 					"/>
				</g>
			</g>
			<g>
				<path style="fill:#EEA886;" d="M1686.229,1234.57c0,0,4.27-10.046,7.451-21.317c0.15-0.534,0.29-1.072,0.429-1.615
					c0.379-1.47,0.726-2.952,1.041-4.429c0.177-0.839,0.341-1.672,0.492-2.505c1.13-6.214,1.444-12.156,0.007-16.39
					c-4.713-13.924,29.557-4.284,29.557-4.284s-6.643,36.831,0,49.253C1731.843,1245.705,1686.229,1234.57,1686.229,1234.57z"/>
			</g>
			<g>
				<path style="fill:#EDDAD3;" d="M1744.353,1233.965c3.819-4.78-23.021-6.445-23.021-6.445l-31.31-2.701
					c0,0-21.529,3.584-38.229,9.368c-16.706,5.784-38.59,37.429-38.59,37.429s30.194,70.885,35.979,91.229
					c5.778,20.343-6.558,72.109-6.558,72.109c36.192,19.702,107.67,2.103,107.67,2.103S1721.799,1262.196,1744.353,1233.965z"/>
			</g>
			<g>
				<path style="fill:#CFBEB8;" d="M1757.119,1319.402c0,0-1.408,2.97-5.269,14.669c-3.933-32.859-1.877-49.963-1.877-49.963
					C1750.401,1301.669,1757.119,1319.402,1757.119,1319.402z"/>
			</g>
			<g>
				<path style="fill:#EEA886;" d="M1723.076,1226.424l-36.849,30.037l3.795-31.643
					C1690.022,1224.818,1711.51,1220.18,1723.076,1226.424z"/>
			</g>
			<g>
				<path style="fill:#494F80;" d="M1747.389,1352.992c-5.069,21.017,20.569,86.797,20.569,86.797l-43.271,14.651
					c-5.35,1.812-11.058-1.559-12.049-7.119c-4.876-27.364-17.526-100.732-18.958-133.265c-1.779-40.413,27.645-88.09,27.645-88.09
					c52.299,8.973,37.961,88.09,37.961,88.09s-1.897,4.985-4.435,12.774c0,0,0,0,0,0.006c-0.64,1.954-1.315,4.09-2.017,6.367
					C1751.043,1339.051,1749.117,1345.843,1747.389,1352.992z"/>
			</g>
			<g>
				<path style="fill:#494F80;" d="M1686.319,1226.547l0.644-1.729c0,0-26.782,4.073-40.395,10.871
					c-13.611,6.798-39.67,41.921-39.67,41.921l34.083,44.996c0.039,34.579-12.027,115.71-12.027,115.71l23.687,9.689
					c3.689,1.509,7.741-1.162,7.804-5.148c0.382-24.695,1.527-97.836,2.112-126.377c0.708-34.584,25.385-90.514,25.385-90.514
					C1687.393,1226.153,1686.854,1226.35,1686.319,1226.547z"/>
			</g>
			<g>
				<path style="fill:#EEA886;" d="M1637.759,1388.686c0,0,25.698,0.998,29.695,0c3.998-1,30.664-12.563,32.266-23.985
					c1.602-11.422-61.961,10.237-61.961,10.237V1388.686z"/>
			</g>
			<g>
				<polygon style="fill:#2A3C57;" points="1717.494,1352.993 1613.203,1340.787 1660.316,1379.119 				"/>
			</g>
			<g>
				<polygon style="fill:#6EA2E8;" points="1660.316,1379.119 1717.494,1359.632 1717.494,1352.993 1658.389,1371.953 				"/>
			</g>
			<g>
				<polygon style="fill:#FAE6DE;" points="1691.949,1218.98 1672.14,1250.418 1662.557,1256.461 1684.889,1225.156 				"/>
			</g>
			<g>
				<polygon style="fill:#D6C5BE;" points="1672.14,1250.418 1686.228,1256.461 1690.022,1224.818 1691.949,1218.98 				"/>
			</g>
			<g>
				<path style="fill:#494F80;" d="M1640.899,1373.98c0,0-1.07,13.277,0,16.061c0,0-64.315-6.424-70.312-15.418
					c-5.996-8.995-5.782-19.917-5.782-19.917L1640.899,1373.98z"/>
			</g>
			<g>
				<polygon style="fill:#6EA2E8;" points="1660.316,1379.119 1629.907,1266.049 1514.267,1253.843 1545.96,1357.919 				"/>
			</g>
			<g>
				<path style="fill:#494F80;" d="M1810.201,1314.48c5.799-4.783,9.209-6.537,16.198-12.558
					c10.877-9.365,24.783-21.219,24.783-21.219l13.213,19.405c0,0-31.964,28.096-48.947,44.775v0.002c0,0-21.5,23.084-26.306,21.042
					c-4.806-2.043-21.942-26.89-35.629-50.772c-13.685-23.884-19.815-39.134-20.501-49.535c-0.687-10.4,33.748-15.411,33.748-15.411
					l26.959,58.88c0,0,4.799,8.423,7.238,10.965C1800.958,1320.055,1807.021,1316.61,1810.201,1314.48z"/>
			</g>
			<g>
				<path style="fill:#EEA886;" d="M1711.216,1103.684c-12.049-1.972-39.618,1.049-47.433,32.686c0,0-0.021,8.768,1.302,15.81
					c1.323,7.042-7.064,26.398-5.587,27.569c1.477,1.17,7.904,3.186,7.904,3.186s4.563,22.717,12.274,23.409
					c7.713,0.692,37.516-1.989,54.346-27.677C1750.853,1152.979,1759.87,1111.647,1711.216,1103.684z"/>
			</g>
			<g>
				<path style="fill:#FCCCA2;" d="M1663.783,1136.369c0,0,18.135,15.658,37.346,20.6c19.21,4.939,29.379,26.517,29.379,26.517
					s33.986-33.899,13.476-66.801C1723.473,1083.783,1663.815,1098.458,1663.783,1136.369z"/>
			</g>
			<g>
				<path style="fill:#FCCCA2;" d="M1704.662,1158.096c0,0,20.11,52.771,17.756,65.487c0,0,9.938-1.728,28.458,3.937
					C1750.876,1227.52,1741.923,1133.257,1704.662,1158.096z"/>
			</g>
			<g>
				<polygon style="fill:#D6C5BE;" points="1696.876,1251.362 1686.228,1256.461 1722.418,1220.586 				"/>
			</g>
			<g>
				<polygon style="fill:#FAE6DE;" points="1722.418,1220.586 1696.876,1251.362 1710.851,1263.825 1725.934,1226.981 				"/>
			</g>
			<g>
				<path style="fill:#A77860;" d="M1715.408,1196.673c-0.164,0.266-5.703,8.877-21.299,14.965c0.379-1.47,0.726-2.952,1.041-4.429
					c0.177-0.839,0.341-1.672,0.492-2.505C1695.643,1204.704,1708.551,1201.55,1715.408,1196.673z"/>
			</g>
			<g>
				<path style="fill:#6696D6;" d="M1590.945,1313.323c3.217,6.052,3.164,12.373-0.117,14.117c-3.282,1.744-8.55-1.749-11.768-7.801
					c-3.217-6.054-3.164-12.374,0.118-14.118C1582.46,1303.777,1587.729,1307.271,1590.945,1313.323z"/>
			</g>
			<g>
				<path style="fill:#494F80;" d="M1725.934,1226.981c0,0,33.679-4.573,43.496,30.694
					C1769.431,1257.676,1726.6,1253.066,1725.934,1226.981z"/>
			</g>
		</g>
		<g>
			<path style="fill:#36572B;" d="M517.698,1458.906c16.248,0,29.421-13.173,29.421-29.421c0-4.388-0.959-8.545-2.683-12.283
				c-4.653-10.115-14.874-17.138-26.738-17.138c-16.248,0-29.421,13.173-29.421,29.421c0,5.579,1.552,10.797,4.252,15.242
				C497.685,1453.226,507.028,1458.906,517.698,1458.906z"/>
			<path style="fill:#45613C;" d="M547.578,1456.269c11.368,0,20.588-9.22,20.588-20.588c0-0.656-0.029-1.306-0.092-1.946
				c-0.979-10.458-9.783-18.643-20.496-18.643c-11.369,0-20.589,9.219-20.589,20.589c0,7.207,3.706,13.552,9.315,17.228
				C539.543,1455.033,543.416,1456.269,547.578,1456.269z"/>
			<path style="fill:#925E2E;" d="M517.218,1431.032c0,0-1.64,13.664-2.185,32.247c-0.547,18.583,14.21,18.583,14.21,18.583v68.068
				h10.244c0,0-0.243-69.431,4.858-75.019c5.102-5.587,5.102-32.065,5.102-32.065l-2.915-1.701c0,0,4.373,31.338-15.547,35.954
				c-19.921,4.615-12.39-44.699-12.39-44.699L517.218,1431.032z"/>
			<path style="fill:#48753A;" d="M510.41,1434.223c16.89-3.156,28.014-10.458,34.026-17.021
				c-4.653-10.115-14.874-17.138-26.738-17.138c-16.248,0-29.421,13.173-29.421,29.421c0,5.579,1.552,10.797,4.252,15.242
				C493.338,1440.727,497.719,1436.591,510.41,1434.223z"/>
			<path style="fill:#538742;" d="M553.59,1441.328c6.825-1.968,11.449-4.668,14.484-7.594
				c-0.979-10.458-9.783-18.643-20.496-18.643c-11.369,0-20.589,9.219-20.589,20.589c0,7.207,3.706,13.552,9.315,17.228
				C538.392,1448.966,543.114,1444.346,553.59,1441.328z"/>
			<polygon style="fill:#877670;" points="565.181,1518.288 495.948,1518.288 499.517,1531.136 560.897,1531.136 			"/>
			<polygon style="fill:#876455;" points="556.53,1531.137 505.148,1531.137 512.285,1560.199 551.534,1560.199 			"/>
			<path style="fill:#538742;" d="M549.446,1417.677l1.775,0.547c0,0,2.794-7.592,2.976-8.624
				C554.38,1408.566,549.446,1417.677,549.446,1417.677z"/>
			<path style="fill:#538742;" d="M566.223,1418.224l-8.807,2.672c0,0,0.06,0.79,1.215,0.79S566.223,1418.224,566.223,1418.224z"/>
			<path style="fill:#538742;" d="M563.185,1436.686h-2.247c0,0,0.425,3.341,2.247,5.467
				C565.008,1444.277,563.185,1436.686,563.185,1436.686z"/>
			<path style="fill:#48753A;" d="M509.135,1394.538c-0.911,0.668,3.219,10.749,3.219,10.749h2.064
				C514.418,1405.287,510.046,1393.87,509.135,1394.538z"/>
			<path style="fill:#48753A;" d="M518.73,1402.798c0.364-2.733-1.762-7.349-1.762-7.349v6.923
				C516.969,1402.372,518.366,1405.53,518.73,1402.798z"/>
			<path style="fill:#48753A;" d="M502.454,1442.527c1.275-1.044,1.336-10.215,1.336-10.215l-2.004,0.729
				C501.786,1433.042,501.179,1443.57,502.454,1442.527z"/>
			<path style="fill:#715346;" d="M539.509,1531.137h-34.36l7.137,29.063h11.252
				C517.179,1536.812,539.509,1531.137,539.509,1531.137z"/>
		</g>
		<g>
			<path style="fill:#9E633A;" d="M514.092,1560.199c2.819-1.175,7.372-14.487,9.563-21.379c0.777-2.446,1.258-4.084,1.258-4.084
				h-25.781c2.228,15.914,7.639,25.463,7.639,25.463H514.092z"/>
			<path style="fill:#97A43C;" d="M516.16,1526.809c0-0.926,4.138-4.804,6.207-7.336c2.068-2.531-0.796-7.334-0.796-7.334
				c-9.23,3.819-7.639,14.67-7.639,14.67S516.16,1527.734,516.16,1526.809z"/>
			<path style="fill:#97A43C;" d="M510.908,1527.22h1.114c0,0,0.796-18.742-6.047-21.288c-6.844-2.546-6.844-7.639-6.844-7.639
				s-2.068,7.002,1.273,10.662c3.342,3.66,7.161,7.957,6.525,11.459C506.294,1523.915,510.908,1527.22,510.908,1527.22z"/>
			<path style="fill:#82522F;" d="M523.655,1538.82c0.777-2.446,1.258-4.084,1.258-4.084h-25.781
				c2.228,15.914,7.639,25.463,7.639,25.463h1.684C508.141,1545.298,517.952,1540.404,523.655,1538.82z"/>
			<polygon style="fill:#C67B47;" points="524.907,1526.809 498.936,1526.809 497.458,1534.736 525.964,1534.736 			"/>
		</g>
		<g>
			<path style="fill:#202338;" d="M1217.72,1858.262c0,0-5.918,11.042-9.785,15.425c-3.867,4.382-18.676,12.217-18.756,25.232
				c-0.087,14.114,24.962,10.197,34.759,9.682c9.797-0.516,10.538-8.056,14.662-16.048c4.125-7.992,8.282-6.639,9.056-13.084
				c0.774-6.445-3.994-21.207-3.994-21.207H1217.72z"/>
			<g>
				<path style="fill:#202338;" d="M1366.846,1856.976c0,0,12.071,13.478,24.327,16.302c12.255,2.823,20.828,6.425,20.92,14.158
					c0.092,7.734-35.268,12.831-49.293,5.034c-20.932-11.636-23.059-8.128-25.38-13.945c-2.32-5.816,2.788-21.37,2.637-23.22
					C1339.87,1853.019,1366.846,1856.976,1366.846,1856.976z"/>
			</g>
			<g>
				<path style="fill:#81807E;" d="M1365.488,1850.527c0,0,1.594,6.314,1.357,6.448c-0.237,0.134-27.617,3.396-26.789-1.671
					c0.672-4.109,1.63-8.575,1.63-8.575L1365.488,1850.527z"/>
			</g>
			<g>
				<path style="fill:#81807E;" d="M1243.322,1854c0,0,1.146,6.023,0.924,6.169c-0.222,0.144-27.765,5.063-27.608,0.062
					c0.123-3.973,2.54-8.604,2.54-8.604L1243.322,1854z"/>
			</g>
			<g>
				<path style="fill:#292C47;" d="M1340.594,1472.556c0,0,9.958,96.7,15.137,129.804c6.055,38.706,8.108,70.686,9.796,90.719
					c2.124,25.198,2.534,149.146,4.021,156.514c1.487,7.367-32.982,2.035-32.982,2.035s-16.957-161.953-23.283-188.788
					c-5.89-24.986-27.75-132.563-33.125-125.741c-5.374,6.823-12.039,125.541-16.019,145.247
					c-3.98,19.707-16.086,173.989-16.086,173.989s-27.434,5.463-34.73-0.713c0,0-3.321-132.961-0.785-169.908
					c0.966-14.08-16.498-168.827,5.896-231.125C1230.267,1421.664,1340.594,1472.556,1340.594,1472.556z"/>
			</g>
			<g>
				<path style="fill:#DBD8E3;" d="M1251.214,1451.118c0,0,6.645-10.044,13.674-11.335c7.041-1.29-96.914-51.543-96.637-69.494
					c0.213-14.562,37.434-38.719,37.434-38.719s0,0.021,0.011,0.063c0.011,0.011,0.011,0.032,0.011,0.043
					c0,0.021,0.011,0.043,0.011,0.063c0.789,2.881,11.542,42.774,11.915,61.943c0.394,19.894-1.188,88.329-1.188,88.329
					l26.646,7.136l85.104,0.796l19.425-7.932c0,0-2.122-22.002-2.912-37.458c-0.49-9.824-2.399-27.414-1.909-44.545
					c0,0-0.31-18.06,1.482-25.836c0.193-34.326,2.273-68.322,2.273-68.322c1.152-15.563,1.952-30.112,2.411-43.691
					c-3.756-1.984-8.267-4.31-11.884-6.027c-11.179-5.322-26.753-12.49-36.747-17.077c-5.857-2.688-11.585-4.651-11.585-4.651
					s-39.947-3.829-43.19-3.627c-1.023,0.064-6.016,1.804-12.565,4.299c-14.166,5.377-41.473,16.32-45.825,19.446
					c-6.379,4.565-48.135,115.031-48.742,122.626C1137.326,1390.834,1251.214,1451.118,1251.214,1451.118z"/>
			</g>
			<path style="fill:#1D2033;" d="M1345.055,1474.75c0,0-58.461,4.978-109.662,0v16.8c0,0,76.248,7.282,112.227-3.204
				L1345.055,1474.75z"/>
			<g>
				<path style="fill:#323657;" d="M1295.194,1236.846c0,0,9.509,22.342,16.644,72.273c2.741,19.18,7.822,51.465,11.513,84.415
					v0.011c2.912,25.974,9.558,52.631,11.67,72.514c2.187,20.598,8.779,81.282,8.779,81.282l15.989-10.08
					c2.283-2.112,5.483-4.854,4.555-7.819c-4.395-14.197-12.811-61.132-17.781-102.039c0-0.032-0.011-0.054-0.011-0.086
					c-0.234-1.973-0.47-3.926-0.693-5.867c-0.011-0.096-0.021-0.202-0.032-0.309c-0.939-8.182-1.717-16.021-2.272-23.201
					c-0.427-5.504-0.043-10.88,0.715-16.139c2.229-36.72,3.334-75.432,3.334-75.432c1.174-15.852,1.844-30.657,2.292-44.461
					C1349.896,1261.908,1299.737,1238.202,1295.194,1236.846z"/>
			</g>
			<g>
				<path style="fill:#323657;" d="M1180.182,1365.218c-6.934,15.2,63.629,42.298,62.038,46.048
					c-3.815,8.998-19.387,27.325-19.387,27.325s-92.903-45.95-91.865-56.372c0.756-7.586,44.281-122.268,50.657-126.837
					c3.682-2.643,30.969-12.315,44.357-17.592c2.448-0.967,10.8-4.106,12.992-4.938c2.841,3.16,22.419,24.763,29.332,106.388
					c1.164,13.755-2.515,42.889-4.972,66.667c-2.621,25.367-5.526,45.167-7.653,66.38c-4.192,41.798-7.125,75.055-7.125,75.055
					l-41.598-18.52c-6.73-3.369-18.372-12.156-15.841-19.245c9.616-26.934,24.046-77.98,24.059-101.614
					c0,0-6.799-65.219-10.477-77.94C1204.7,1330.022,1187.937,1348.217,1180.182,1365.218z"/>
			</g>
			<g>
				<path style="fill:#EEA987;" d="M1249.247,1235.026c0,0-0.274-13.715-5.559-41.459c-1.413-7.427,43.117,19.543,43.117,19.543
					s-0.138,2.601-0.227,6.113c-0.048,1.855-0.078,3.962-0.065,6.073c0.006,0.746,0.012,1.485,0.029,2.219
					c0.042,1.963,0.131,3.842,0.299,5.44c0.167,1.646,1.139,4.552,1.484,5.351
					C1290.163,1242.543,1264.244,1245.758,1249.247,1235.026z"/>
			</g>
			<path style="fill:#E8734D;" d="M1277.042,1249.396l7.382,9.917c0,0-4.325,5.791-12.005,1.516L1277.042,1249.396z"/>
			<path style="fill:#E8734D;" d="M1282.449,1259.715c0,0,27.995,107.787,22.225,191.688l-9.419,16.6l-8.817-17.39
				c0,0-2.415-150.076-10.091-191.162L1282.449,1259.715z"/>
			<path style="fill:#EEA987;" d="M1284.946,1240.148l-7.904,9.247c0,0-12.685-2.458-16.408-9.083
				C1256.909,1233.687,1284.946,1240.148,1284.946,1240.148z"/>
			<path style="fill:#C4C1CC;" d="M1286.759,1232.057c0,0-0.918,7.048-9.717,17.339l9.604,12.902l5.198-26.767L1286.759,1232.057z"
				/>
			<path style="fill:#C4C1CC;" d="M1248.397,1224.215c0,0,15.819,20.109,28.645,25.181l-5.966,14.753l-27.256-32.944
				L1248.397,1224.215z"/>
			<g>
				<path style="fill:#EEA886;" d="M1512.63,1373.318c0,0,29.326,3.423,30.975,5.3s1.258,3.469-1.506,3.263
					c-2.763-0.204-28.487-2.479-28.487-2.479s33.619,9.931,35.329,11.15c1,0.714,0.424,3.826-1.075,3.854
					c-1.498,0.027-35.518-7.871-35.518-7.871s31.368,9.33,32.463,10.798c0.958,1.284-0.282,4.058-2.667,3.529
					s-32.106-7.509-32.106-7.509s22.303,8.257,22.455,10.095c0.094,1.124-0.28,3.828-5.956,1.513
					c-5.676-2.314-19.738-6.33-19.738-6.33L1512.63,1373.318z"/>
			</g>
			<g>
				<g>
					<path style="fill:#EEA886;" d="M1477.95,1374.703c0,0,9.765,0.508,12.749-4.432c2.538-4.199,8.738-8.006,10.645-9.181
						c2.551-1.572,8.776-9.188,10.576-6.129c1.8,3.06-9.69,13.008-11.715,15.546c-2.023,2.539,12.05,1.609,14.616,3.455
						s1.17,25.139-8.485,24.663c-9.654-0.475-19.212-7.377-20.95-7.122c-1.737,0.254-7.058-0.066-7.058-0.066L1477.95,1374.703z"/>
				</g>
			</g>
			<g>
				<path style="fill:#323657;" d="M1482.023,1397.729c0,0-71.943-10.073-87.91-14.001c-7.381-1.815-17.104-12.005-26.342-23.984
					c-3.046-3.944-6.032-8.085-8.874-12.183c-0.009-0.008-0.009-0.017-0.009-0.017c-11.335-16.365-20.217-32.052-20.217-32.052
					s-33.503-39.264-6.618-56.766c0,0,11.523-0.249,17.843,3.182c6.498,3.529,20.36,32.459,22.711,37.583
					c2.35,5.115,27.81,52.7,29.515,53.77c1.706,1.068,27.117,6.589,38.443,8.952c16.404,3.422,47.227,9.82,47.227,9.82
					L1482.023,1397.729z"/>
			</g>
			<rect x="1274.605" y="1475.644" style="fill:#3A4066;" width="27.342" height="20.741"/>
			<path style="fill:#EFAA88;" d="M1256.274,1452.357c0,0-3.4-0.137-4.858-0.922c0,0-2.544-1.633-4.422-2.684
				c-0.597-0.33-1.125-0.606-1.484-0.748c-1.501-0.597-4.974-1.455-8.178-3.898c-3.201-2.438-13.638-12.202-13.638-12.202
				l6.745-10.369l3.114-10.269c0,0,24.332,2.42,27.578,4.349c0.316,0.19,0.621,0.39,0.894,0.6c2.591,1.899,3.719,4.401,4.966,5.552
				c0.454,0.426,4.692,4.962,4.455,6.803c-0.326,2.554-1.588,4.192-3.173,4.967c0,0-0.858,4.975-3.429,7.196
				c0,0-0.645,4.613-4.629,6.468C1260.216,1447.199,1259.037,1451.807,1256.274,1452.357z"/>
			<path style="fill:#323657;" d="M1222.833,1438.591c0,0,13.528-11.104,20.857-27.325l-41.525-22.738l-15.409,31.377
				L1222.833,1438.591z"/>
			<g>
				<path style="fill:#EEA886;" d="M1310.253,1144.839c0,0,9.783,18.138,4.935,20.958c-4.006,2.33,4.694,20.13,5.833,23.037
					c1.138,2.908-7.258,5.021-9.041,6.894c-1.782,1.871-7.069,24.901-13.983,25.597c-6.914,0.694-38.069-10.141-46.554-18.961
					c-8.483-8.821-15.444-48.663-9.781-65.469C1247.323,1120.089,1292.987,1113.154,1310.253,1144.839z"/>
			</g>
			<g>
				<path style="fill:#E8734D;" d="M1312.206,1148.769c0,0,9.986-19.588-8.152-34.119c-18.14-14.53-51.588,10.972-55.357,11.944
					s-25.159,2.441-14.359,39.997c9.273,32.249,10.569,33.606,10.569,33.606s6.921-18.683,10.843-21.529
					c6.126-4.447,19.555-3.379,19.555-3.379s-6.399-16.989,3.601-19.395S1302.089,1145.013,1312.206,1148.769z"/>
			</g>
			<g>
				<path style="fill:#EEA886;" d="M1264.651,1165.561c-0.883-2.33-3.734-12.346-12.328-6.465
					c-8.594,5.882,5.354,24.759,6.853,25.002S1272.073,1185.17,1264.651,1165.561z"/>
			</g>
			<path style="fill:#A77860;" d="M1286.513,1225.297c0.006,0.746,0.012,1.485,0.029,2.219
				c-25.472-8.548-30.404-21.415-30.404-21.415c7.945,5.619,30.44,13.123,30.44,13.123
				C1286.53,1221.079,1286.5,1223.186,1286.513,1225.297z"/>
		</g>
		
			<rect x="1126.27" y="444.658" transform="matrix(-1 -1.224647e-16 1.224647e-16 -1 2354.2461 896.9087)" style="fill:#FFDC7D;" width="101.707" height="7.592"/>
		
			<rect x="1126.27" y="455.572" transform="matrix(-1 -1.224647e-16 1.224647e-16 -1 2354.2461 931.7071)" style="fill:#FFDC7D;" width="101.707" height="20.563"/>
		
			<rect x="540.681" y="232.627" transform="matrix(-1 -1.224647e-16 1.224647e-16 -1 1165.4344 471.1475)" style="fill:#FFD887;" width="84.073" height="5.893"/>
		
			<rect x="540.681" y="243.734" transform="matrix(-1 -1.224647e-16 1.224647e-16 -1 1165.4344 512.2451)" style="fill:#FFD887;" width="84.073" height="24.776"/>
		
			<rect x="638.56" y="200.862" transform="matrix(-1 -1.224647e-16 1.224647e-16 -1 1280.8221 471.1465)" style="fill:#FFD989;" width="3.703" height="69.422"/>
		<polygon style="fill:#FFDC7D;" points="2050.141,279.721 2073.873,279.721 2066.608,264.654 2042.876,264.654 		"/>
		<polygon style="fill:#FFDC7D;" points="2039.036,279.721 2044.69,279.721 2037.427,264.654 2031.771,264.654 		"/>
		<polygon style="fill:#FFDC7D;" points="1957.042,261.777 2053.139,261.777 2049.95,254.244 1953.853,254.244 		"/>
		<g>
			<g>
				
					<rect x="723.492" y="1553.015" transform="matrix(-1 -1.224647e-16 1.224647e-16 -1 1565.6328 3113.0713)" style="fill:#E2D2CA;" width="118.648" height="7.042"/>
			</g>
			<g>
				<rect x="815.843" y="1578.387" style="fill:#706865;" width="10.396" height="320.307"/>
			</g>
			<g>
				
					<rect x="659.589" y="1551.018" transform="matrix(-1 -1.224647e-16 1.224647e-16 -1 1401.6503 3112.0938)" style="fill:#CCBDB7;" width="82.473" height="10.059"/>
			</g>
			<g>
				
					<rect x="685.21" y="1465.2" transform="matrix(-1 -1.224647e-16 1.224647e-16 -1 1401.6503 3025.2568)" style="fill:#FFAA55;" width="31.23" height="94.856"/>
			</g>
			<g>
				
					<rect x="427.757" y="1560.175" transform="matrix(-1 -1.224647e-16 1.224647e-16 -1 1312.4589 3138.5615)" style="fill:#B59074;" width="456.945" height="18.212"/>
			</g>
			<g>
				<path style="fill:#D44040;" d="M972.4,1449.942c0,0,4.998,70.085-8.696,78.474c-8.579,5.254-42.783,22.978-41.769,26.301
					c1.015,3.323,19.313,29.57,19.313,29.57s65.7-43.265,67.818-56.898c2.069-13.32-3.233-102.619-12.263-106.732
					c-6.764-3.081-10.335-0.533-18.858,5.796C965.982,1435.334,972.4,1449.942,972.4,1449.942z"/>
			</g>
			<g>
				<g>
					<g>
						<path style="fill:#EAD8CF;" d="M852.66,1469.953l-5.79-2.143c0,0,7.222-16.951,10.373-16.539
							c3.631,0.476,8.163,1.673,8.163,1.673L852.66,1469.953z"/>
					</g>
				</g>
			</g>
			<g>
				<g>
					<g>
						<path style="fill:#DA9B5B;" d="M851.338,1472.877c0.74-0.551,12.309-22.746,12.309-22.746l24.718,3.359l-13.356,26.288
							L851.338,1472.877z"/>
					</g>
				</g>
			</g>
			<g>
				<g>
					<g>
						<path style="fill:#424773;" d="M891.566,1854.96c0,0,2.043,14.181,2.298,16.312c0.256,2.13,22.728-1.255,22.728-1.255
							l1.819-16.883C918.411,1853.134,894.375,1852.959,891.566,1854.96z"/>
					</g>
				</g>
			</g>
			<g>
				<g>
					<g>
						<path style="fill:#292C47;" d="M893.625,1869.468c0,0-7.119,8.546-14.006,12.27c-6.887,3.725-17.708,5.2-21.78,9.056
							c-2.939,2.783-10.706,14.764,17.895,14.522c28.601-0.242,42.391,1.692,45.455-2.901c3.065-4.594-4.434-33.906-4.434-33.906
							S909.98,1870.945,893.625,1869.468z"/>
					</g>
				</g>
			</g>
			<g>
				<g>
					<g>
						<path style="fill:#424773;" d="M747.591,1855.095c0,0,2.043,14.181,2.299,16.311c0.255,2.13,22.727-1.255,22.727-1.255
							l1.82-16.882C774.437,1853.269,750.4,1853.094,747.591,1855.095z"/>
					</g>
				</g>
			</g>
			<g>
				<g>
					<g>
						<path style="fill:#292C47;" d="M749.65,1869.603c0,0-7.12,8.545-14.007,12.27c-6.886,3.725-32.227,6.784-36.299,10.64
							c-2.94,2.782-7.828,13.985,32.414,12.938c28.591-0.744,42.39,1.693,45.454-2.9c3.064-4.594-4.434-33.906-4.434-33.906
							S766.397,1871.245,749.65,1869.603z"/>
					</g>
				</g>
			</g>
			<g>
				<g>
					<g>
						<path style="fill:#292C47;" d="M964.047,1610.001c0,0-81.699,13.824-100.151,16.722
							c-18.453,2.897-118.506,27.795-131.018,35.381c-9.961,6.039,5.224,151.07,8.769,206.404h39.409l2.857-165.983
							c47.29,1.183,81.036-11.063,115.474-5.832c34.437,5.23,63.146,12.665,85.029-16.688
							C984.417,1680.004,985.229,1616.412,964.047,1610.001z"/>
					</g>
				</g>
			</g>
			<g>
				<g>
					<g>
						<path style="fill:#292C47;" d="M883.519,1868.643l38.404-2.375l3.743-163.743c20.358,0.509,27.338-0.782,43.813-2.78
							l31.008-72.074c-27.175,5.432-114.243,27.392-125.853,34.433C864.675,1668.144,879.973,1813.307,883.519,1868.643z"/>
					</g>
				</g>
			</g>
			<g>
				<g>
					<g>
						<path style="fill:#EEA886;" d="M926.438,1303.761c0,0-29.95-8.277-41.376,14.973c-11.427,23.249-6.246,67.325,8.848,71.472
							c15.095,4.146,36.8-0.628,43.066-15.099c6.267-14.47,11.265-35.032,9.765-48.348S934.391,1306.942,926.438,1303.761z"/>
					</g>
				</g>
			</g>
			<g>
				<g>
					<g>
						<path style="fill:#EEA886;" d="M901.736,1385.565c0,0,0.329,17.682-1.62,21.451c-1.949,3.769,41.704,2.823,41.704,2.823
							s-6.88-21.232-2.978-39.321C942.706,1352.613,901.736,1385.565,901.736,1385.565z"/>
					</g>
				</g>
			</g>
			<g>
				<g>
					<g>
						<path style="fill:#3A3F47;" d="M941.195,1363.823c0,0-2.334,4.745-13.633,3.979c-11.3-0.767-26.203-14.397-31-15.615
							c-4.797-1.218-5.082-3.948-5.082-3.948l-2.538,4.512l-4.916,0.748c0,0,3.341-13.661-3.937-18.472
							c-7.277-4.812,3.277-43.556,40.122-34.211c0,0,28.119,5.15,28.496,20.852C949.085,1337.368,946.653,1355.506,941.195,1363.823
							z"/>
					</g>
				</g>
			</g>
			<g>
				<g>
					<g>
						<path style="fill:#E2D2CA;" d="M897.821,1406.563c0,0,0.122-7.202,3.387-7.893c3.265-0.69,34.314-4.962,38.321-3.387
							l1.719,9.511C941.248,1404.794,933.528,1409.545,897.821,1406.563z"/>
					</g>
				</g>
			</g>
			<g>
				<g>
					<g>
						<path style="fill:#EEA886;" d="M888.837,1345.018c0.838-5.902,7.549-12.684,11.393-3.488
							c3.844,9.194-2.595,22.584-6.906,21.866C889.011,1362.678,887.7,1353.027,888.837,1345.018z"/>
					</g>
				</g>
			</g>
			<g>
				<g>
					<g>
						<path style="fill:#323657;" d="M767.768,1491.657c0.016-0.007,0.032-0.009,0.054-0.005
							C767.598,1491.751,767.565,1491.76,767.768,1491.657z"/>
					</g>
				</g>
			</g>
			<g>
				<g>
					<g>
						<path style="fill:#3A3F47;" d="M935.174,1307.977c0,0,36.517-1.719,6.374,55.286L935.174,1307.977z"/>
					</g>
				</g>
			</g>
			<g>
				<g>
					<polygon style="fill:#918783;" points="1016.536,1888.065 1013.819,1895.707 899.043,1860.144 904.543,1844.67 					"/>
				</g>
			</g>
			<g>
				<g>
					
						<rect x="895.105" y="1729.913" transform="matrix(-1 -1.224647e-16 1.224647e-16 -1 1803.2567 3584.6123)" style="fill:#918783;" width="13.046" height="124.786"/>
				</g>
			</g>
			<g>
				<g>
					
						<rect x="863.156" y="1723.283" transform="matrix(-1 -1.224647e-16 1.224647e-16 -1 1803.2568 3453.9189)" style="fill:#5E5854;" width="76.944" height="7.352"/>
				</g>
			</g>
			<g>
				<g>
					<polygon style="fill:#918783;" points="785.712,1888.065 788.429,1895.707 903.205,1860.144 898.161,1843.698 					"/>
				</g>
			</g>
			<g>
				<g>
					<polygon style="fill:#918783;" points="866.58,1894.89 866.58,1903.777 903.205,1860.144 898.161,1843.698 					"/>
				</g>
			</g>
			<g>
				<g>
					
						<ellipse transform="matrix(0.7071 -0.7071 0.7071 0.7071 -1112.4493 1111.6967)" style="fill:#BFB2AC;" cx="785.712" cy="1898.693" rx="10.727" ry="10.727"/>
				</g>
			</g>
			<g>
				<g>
					
						<ellipse transform="matrix(0.7071 -0.7071 0.7071 0.7071 -1085.8887 1175.8196)" style="fill:#BFB2AC;" cx="876.395" cy="1898.693" rx="10.727" ry="10.727"/>
				</g>
			</g>
			<g>
				<g>
					<path style="fill:#BFB2AC;" d="M1005.809,1898.693c0,5.925,4.803,10.727,10.727,10.727c5.924,0,10.727-4.802,10.727-10.727
						c0-5.924-4.803-10.727-10.727-10.727C1010.611,1887.967,1005.809,1892.77,1005.809,1898.693z"/>
				</g>
			</g>
			<g>
				<path style="fill:#F7F7F7;" d="M819.785,1723.283h162.678c5.414,0,9.804-4.39,9.804-9.804v-8.245
					c0-5.414-4.39-9.804-9.804-9.804H819.785c-5.415,0-9.804,4.39-9.804,9.804v8.245
					C809.981,1718.894,814.37,1723.283,819.785,1723.283z"/>
			</g>
			<g>
				
					<rect x="486.22" y="1578.387" transform="matrix(-1 -1.224647e-16 1.224647e-16 -1 982.8359 3477.0801)" style="fill:#706865;" width="10.396" height="320.307"/>
			</g>
			<g>
				
					<linearGradient id="SVGID_00000152975534104188695050000009009042116307499652_" gradientUnits="userSpaceOnUse" x1="565.9883" y1="1415.7734" x2="835.6621" y2="1415.7734">
					<stop  offset="0" style="stop-color:#FF9F55"/>
					<stop  offset="1" style="stop-color:#FFD255"/>
				</linearGradient>
				<path style="fill:url(#SVGID_00000152975534104188695050000009009042116307499652_);" d="M575.768,1510.894h250.113
					c5.401,0,9.78-4.378,9.78-9.779v-170.682c0-5.401-4.379-9.779-9.78-9.779H575.768c-5.401,0-9.78,4.378-9.78,9.779v170.682
					C565.988,1506.516,570.367,1510.894,575.768,1510.894z"/>
			</g>
			<g>
				
					<rect x="576.551" y="1330.937" transform="matrix(-1 -1.224647e-16 1.224647e-16 -1 1401.6514 2812.0176)" style="fill:#F5F7FF;" width="248.55" height="150.145"/>
			</g>
			<g>
				<path style="fill:#FFC655;" d="M644.998,1560.418v-3.385c0,0,4.76-21.058,38.424-21.058c33.665,0,32.984,24.442,32.984,24.442
					H644.998z"/>
			</g>
			<g>
				<g>
					<path style="fill:#EEA886;" d="M716.813,1539.104c0,0-7.313-0.566-9.992-2.184c-2.68-1.617-18.71-12.398-22.476-10.672
						c-3.766,1.726-28.824,9.401-27.954,13.066c0.87,3.664,3.188,3.311,4.956,2.662c1.769-0.648,19.964-4.468,21.57-3.824
						c0,0-17.874,6.521-17.945,11.278c-0.072,4.757,3.74,5.917,5.436,7.715c1.694,1.8,3.729,6.268,8.335,6.61
						c4.607,0.343,27.081-7.478,31.708-7.834c4.627-0.356,13.19,0.286,13.771-0.467
						C724.805,1554.702,716.813,1539.104,716.813,1539.104z"/>
				</g>
			</g>
			<g>
				<g>
					<g>
						<path style="fill:#D44040;" d="M849.959,1416.544c23.318-4.098,47.862-9.982,47.862-9.982l43.428-1.769
							c0,0,39.857,8.773,55.555,15.863c1.489,0.672,1.495,35.558,5.582,44.705l-13.015,27.455c0,0-7.518,54.387-9.077,78.574
							c-0.717,11.104,2.024,107.313,2.024,107.313s-3.901,1.926-33.54,5.192c-29.64,3.267-103.695-1.181-104.162-4.681
							c-0.468-3.502,14.342-130.354,14.998-136.922c1.006-10.083-2.912-56.672-2.912-56.672
							c-5.585,7.502-19.821,41.378-34.66,57.494c-8.73,9.482-51.951,15.295-60.099,15.566c-17.733,0.592-50.087,4.123-51.032,2.398
							c-0.755-1.036-2.818-28.717-0.79-29.393c1.775-0.593,61.85-4.051,77.241-12.217c5.63-2.988,22.463-39.692,22.463-39.692
							S837.095,1422.325,849.959,1416.544z"/>
					</g>
				</g>
			</g>
			<g>
				<path style="fill:#F7F7F7;" d="M927.966,1675.924h88.06c10.396,0,18.824-8.428,18.824-18.824v-136.456
					c0-10.396-8.428-18.824-18.824-18.824h-88.06c-10.396,0-18.823,8.428-18.823,18.824V1657.1
					C909.143,1667.496,917.57,1675.924,927.966,1675.924z"/>
			</g>
			<g>
				<path style="fill:#F7F7F7;" d="M931.418,1716.351c18.529,0,33.563-6.224,44.682-18.501
					c25.129-27.743,20.613-76.514,20.409-78.576c-0.382-3.845-3.813-6.654-7.649-6.271c-3.843,0.382-6.648,3.804-6.271,7.646
					c0.054,0.557,4.058,44.764-16.884,67.841c-8.471,9.336-19.687,13.873-34.287,13.873c-3.862,0-6.994,3.132-6.994,6.994
					S927.556,1716.351,931.418,1716.351z"/>
			</g>
			<g>
				<g>
					<g>
						<path style="fill:#DFE1E8;" d="M736.074,1350.828h70.003c0.774,0,1.401-0.628,1.401-1.401v-5.13
							c0-0.774-0.627-1.401-1.401-1.401h-70.003c-0.774,0-1.402,0.627-1.402,1.401v5.13
							C734.672,1350.2,735.3,1350.828,736.074,1350.828z"/>
					</g>
				</g>
			</g>
			<g>
				<g>
					<g>
						<path style="fill:#DFE1E8;" d="M736.074,1367.843h70.003c0.774,0,1.401-0.628,1.401-1.402v-5.129
							c0-0.774-0.627-1.401-1.401-1.401h-70.003c-0.774,0-1.402,0.627-1.402,1.401v5.129
							C734.672,1367.215,735.3,1367.843,736.074,1367.843z"/>
					</g>
				</g>
			</g>
			<g>
				<g>
					<g>
						<path style="fill:#DFE1E8;" d="M739.386,1469.122h63.379c2.604,0,4.714-2.11,4.714-4.714v-80.271
							c0-2.604-2.11-4.714-4.714-4.714h-63.379c-2.603,0-4.714,2.11-4.714,4.714v80.271
							C734.672,1467.012,736.782,1469.122,739.386,1469.122z"/>
					</g>
				</g>
			</g>
			<g>
				<g>
					<g>
						<path style="fill:#DFE1E8;" d="M597.781,1469.122h114.729c4.121,0,7.463-3.341,7.463-7.463v-111.302
							c0-4.121-3.342-7.462-7.463-7.462H597.781c-4.122,0-7.463,3.341-7.463,7.462v111.302
							C590.318,1465.781,593.659,1469.122,597.781,1469.122z"/>
					</g>
				</g>
			</g>
		</g>
	</g>
</g>
</svg>
